<mxfile host="Electron" modified="2023-06-18T03:53:29.109Z" agent="Mozilla/5.0 (Windows NT 10.0; Win64; x64) AppleWebKit/537.36 (KHTML, like Gecko) draw.io/21.2.8 Chrome/112.0.5615.165 Electron/24.2.0 Safari/537.36" etag="yZ0apCytPOJt_iQQdGB4" version="21.2.8" type="device">
  <diagram name="Page-1" id="lQpNtA0L264ahhq7JF11">
    <mxGraphModel dx="829" dy="485" grid="1" gridSize="10" guides="1" tooltips="1" connect="1" arrows="1" fold="1" page="1" pageScale="1" pageWidth="850" pageHeight="1100" math="0" shadow="0">
      <root>
        <mxCell id="0" />
        <mxCell id="1" parent="0" />
        <mxCell id="oBDaO4ce7Znv1TaOR-NJ-1" value="Video" style="swimlane;fontStyle=1;align=center;verticalAlign=top;childLayout=stackLayout;horizontal=1;startSize=26;horizontalStack=0;resizeParent=1;resizeParentMax=0;resizeLast=0;collapsible=1;marginBottom=0;" vertex="1" parent="1">
          <mxGeometry x="170" width="410" height="400" as="geometry" />
        </mxCell>
        <mxCell id="oBDaO4ce7Znv1TaOR-NJ-2" value="#id:string&#xa;#name:string&#xa;#duration:int&#xa;#genre:string&#xa;&#xa;#suma_calificaciones:int&#xa;#num_calificaciones:int&#xa;#total_Calificacion:double&#xa;" style="text;strokeColor=none;fillColor=none;align=left;verticalAlign=top;spacingLeft=4;spacingRight=4;overflow=hidden;rotatable=0;points=[[0,0.5],[1,0.5]];portConstraint=eastwest;" vertex="1" parent="oBDaO4ce7Znv1TaOR-NJ-1">
          <mxGeometry y="26" width="410" height="134" as="geometry" />
        </mxCell>
        <mxCell id="oBDaO4ce7Znv1TaOR-NJ-3" value="" style="line;strokeWidth=1;fillColor=none;align=left;verticalAlign=middle;spacingTop=-1;spacingLeft=3;spacingRight=3;rotatable=0;labelPosition=right;points=[];portConstraint=eastwest;strokeColor=inherit;" vertex="1" parent="oBDaO4ce7Znv1TaOR-NJ-1">
          <mxGeometry y="160" width="410" height="20" as="geometry" />
        </mxCell>
        <mxCell id="oBDaO4ce7Znv1TaOR-NJ-4" value="+ Video()&#xa;+ Video(string, string, int, string)&#xa;+ ~Video()&#xa;&#xa;+ calificar(int): void&#xa;+ calcular_calificacion(): void&#xa;+ imprimir(): string &lt;&lt;virtual&gt;&gt;&#xa;+ imprimir_Calificacion(): string&#xa;+ imprimir_Genero(): string&#xa;+ SC(): string&#xa;&#xa;+ getId(): string&#xa;+ getCalificacion(): double&#xa;+ getGenero(): string&#xa;" style="text;strokeColor=none;fillColor=none;align=left;verticalAlign=top;spacingLeft=4;spacingRight=4;overflow=hidden;rotatable=0;points=[[0,0.5],[1,0.5]];portConstraint=eastwest;" vertex="1" parent="oBDaO4ce7Znv1TaOR-NJ-1">
          <mxGeometry y="180" width="410" height="220" as="geometry" />
        </mxCell>
        <mxCell id="oBDaO4ce7Znv1TaOR-NJ-5" value="Peliculas" style="swimlane;fontStyle=1;align=center;verticalAlign=top;childLayout=stackLayout;horizontal=1;startSize=26;horizontalStack=0;resizeParent=1;resizeParentMax=0;resizeLast=0;collapsible=1;marginBottom=0;" vertex="1" parent="1">
          <mxGeometry x="100" y="470" width="220" height="140" as="geometry" />
        </mxCell>
        <mxCell id="oBDaO4ce7Znv1TaOR-NJ-6" value="" style="line;strokeWidth=1;fillColor=none;align=left;verticalAlign=middle;spacingTop=-1;spacingLeft=3;spacingRight=3;rotatable=0;labelPosition=right;points=[];portConstraint=eastwest;strokeColor=inherit;" vertex="1" parent="oBDaO4ce7Znv1TaOR-NJ-5">
          <mxGeometry y="26" width="220" height="8" as="geometry" />
        </mxCell>
        <mxCell id="oBDaO4ce7Znv1TaOR-NJ-7" value="+ Peliculas()&#xa;+ Peliculas(string, string, int, string)&#xa;+ ~Peliculas()&#xa;+ imprimir(): string&#xa;" style="text;strokeColor=none;fillColor=none;align=left;verticalAlign=top;spacingLeft=4;spacingRight=4;overflow=hidden;rotatable=0;points=[[0,0.5],[1,0.5]];portConstraint=eastwest;" vertex="1" parent="oBDaO4ce7Znv1TaOR-NJ-5">
          <mxGeometry y="34" width="220" height="106" as="geometry" />
        </mxCell>
        <mxCell id="oBDaO4ce7Znv1TaOR-NJ-8" value="Capitulos" style="swimlane;fontStyle=1;align=center;verticalAlign=top;childLayout=stackLayout;horizontal=1;startSize=26;horizontalStack=0;resizeParent=1;resizeParentMax=0;resizeLast=0;collapsible=1;marginBottom=0;" vertex="1" parent="1">
          <mxGeometry x="480" y="460" width="270" height="160" as="geometry" />
        </mxCell>
        <mxCell id="oBDaO4ce7Znv1TaOR-NJ-9" value="~num_episodio:int&#xa;~serie:string" style="text;strokeColor=none;fillColor=none;align=left;verticalAlign=top;spacingLeft=4;spacingRight=4;overflow=hidden;rotatable=0;points=[[0,0.5],[1,0.5]];portConstraint=eastwest;" vertex="1" parent="oBDaO4ce7Znv1TaOR-NJ-8">
          <mxGeometry y="26" width="270" height="44" as="geometry" />
        </mxCell>
        <mxCell id="oBDaO4ce7Znv1TaOR-NJ-10" value="" style="line;strokeWidth=1;fillColor=none;align=left;verticalAlign=middle;spacingTop=-1;spacingLeft=3;spacingRight=3;rotatable=0;labelPosition=right;points=[];portConstraint=eastwest;strokeColor=inherit;" vertex="1" parent="oBDaO4ce7Znv1TaOR-NJ-8">
          <mxGeometry y="70" width="270" height="8" as="geometry" />
        </mxCell>
        <mxCell id="oBDaO4ce7Znv1TaOR-NJ-11" value="+ Capitulos()&#xa;+ Capitulos(string, string, int, string, string, int)&#xa;+ ~Capitulos()&#xa;+ imprimir(): string&#xa;" style="text;strokeColor=none;fillColor=none;align=left;verticalAlign=top;spacingLeft=4;spacingRight=4;overflow=hidden;rotatable=0;points=[[0,0.5],[1,0.5]];portConstraint=eastwest;" vertex="1" parent="oBDaO4ce7Znv1TaOR-NJ-8">
          <mxGeometry y="78" width="270" height="82" as="geometry" />
        </mxCell>
        <mxCell id="oBDaO4ce7Znv1TaOR-NJ-12" value="" style="endArrow=block;endSize=10;endFill=0;shadow=0;strokeWidth=1;rounded=0;edgeStyle=elbowEdgeStyle;elbow=vertical;exitX=0.5;exitY=0;exitDx=0;exitDy=0;entryX=0.646;entryY=0.996;entryDx=0;entryDy=0;entryPerimeter=0;" edge="1" parent="1" source="oBDaO4ce7Znv1TaOR-NJ-5" target="oBDaO4ce7Znv1TaOR-NJ-4">
          <mxGeometry width="160" relative="1" as="geometry">
            <mxPoint x="200" y="550" as="sourcePoint" />
            <mxPoint x="338" y="440" as="targetPoint" />
            <Array as="points">
              <mxPoint x="340" y="460" />
            </Array>
          </mxGeometry>
        </mxCell>
        <mxCell id="oBDaO4ce7Znv1TaOR-NJ-13" value="" style="endArrow=block;endSize=10;endFill=0;shadow=0;strokeWidth=1;rounded=0;edgeStyle=elbowEdgeStyle;elbow=vertical;exitX=0.5;exitY=0;exitDx=0;exitDy=0;entryX=0.646;entryY=0.993;entryDx=0;entryDy=0;entryPerimeter=0;" edge="1" parent="1" source="oBDaO4ce7Znv1TaOR-NJ-8" target="oBDaO4ce7Znv1TaOR-NJ-4">
          <mxGeometry width="160" relative="1" as="geometry">
            <mxPoint x="560" y="530" as="sourcePoint" />
            <mxPoint x="390" y="450" as="targetPoint" />
            <Array as="points">
              <mxPoint x="320" y="450" />
              <mxPoint x="470" y="480" />
              <mxPoint x="415" y="480" />
              <mxPoint x="450" y="470" />
              <mxPoint x="400" y="440" />
              <mxPoint x="360" y="470" />
            </Array>
          </mxGeometry>
        </mxCell>
      </root>
    </mxGraphModel>
  </diagram>
</mxfile>
